<svg xmlns="http://www.w3.org/2000/svg" viewBox="0 0 96 96">
<rect width="96" height="96" rx="18" fill="#ffffff"/>
<g transform="translate(9.52 11.90) scale(0.95)">
<path fill-rule="evenodd" fill="rgb(10.195923%, 10.195923%, 9.411621%)" fill-opacity="1" d="M 41.632812 0.988281 C 42.414062 1.160156 42.785156 1.707031 43.070312 2.414062 C 43.539062 3.582031 44.097656 4.710938 44.613281 5.859375 C 45.136719 7.023438 45.648438 8.195312 46.171875 9.359375 C 46.667969 10.460938 47.171875 11.554688 47.675781 12.652344 C 48.210938 13.8125 48.75 14.96875 49.277344 16.132812 C 49.828125 17.339844 50.371094 18.554688 50.910156 19.765625 C 51.453125 20.980469 52.027344 22.179688 52.542969 23.40625 C 53.011719 24.535156 53.585938 25.621094 54.101562 26.734375 C 54.605469 27.828125 55.097656 28.929688 55.59375 30.027344 C 56.128906 31.226562 56.664062 32.421875 57.199219 33.621094 C 57.96875 35.339844 58.726562 37.0625 59.507812 38.773438 C 60.15625 40.195312 60.839844 41.601562 61.492188 43.019531 C 62.121094 44.390625 62.726562 45.769531 63.347656 47.144531 C 63.988281 48.566406 64.644531 49.984375 65.28125 51.410156 C 65.714844 52.375 66.125 53.355469 66.558594 54.320312 C 66.9375 55.164062 67.335938 56 67.726562 56.839844 C 68.265625 58.015625 68.722656 59.238281 69.367188 60.355469 C 70.015625 61.480469 69.644531 62.214844 68.796875 62.976562 C 68.097656 63.605469 67.5 64.347656 66.851562 65.03125 C 66.382812 65.527344 66.09375 65.4375 65.824219 64.796875 C 65.324219 63.625 64.78125 62.46875 64.265625 61.300781 C 63.859375 60.378906 63.472656 59.445312 63.066406 58.523438 C 62.398438 57.011719 61.71875 55.503906 61.058594 53.992188 C 60.425781 52.546875 59.847656 51.074219 59.167969 49.648438 C 58.589844 48.4375 58.132812 47.171875 57.535156 45.964844 C 56.972656 44.839844 56.539062 43.652344 56.039062 42.492188 C 55.515625 41.292969 54.957031 40.105469 54.457031 38.894531 C 53.933594 37.632812 53.316406 36.414062 52.835938 35.132812 C 52.507812 34.257812 52.070312 33.417969 51.6875 32.5625 C 51.125 31.300781 50.566406 30.039062 50.019531 28.773438 C 49.527344 27.632812 49.035156 26.496094 48.542969 25.359375 C 48.128906 24.398438 47.699219 23.441406 47.285156 22.480469 C 47.234375 22.367188 47.226562 22.214844 47.078125 22.207031 C 46.910156 22.195312 46.914062 22.367188 46.871094 22.472656 C 46.320312 23.839844 45.734375 25.191406 45.210938 26.5625 C 44.710938 27.886719 44.117188 29.167969 43.652344 30.507812 C 43.308594 31.511719 42.808594 32.460938 42.40625 33.449219 C 41.996094 34.445312 41.621094 35.460938 41.21875 36.464844 C 40.835938 37.417969 40.429688 38.359375 40.042969 39.3125 C 39.492188 40.675781 38.957031 42.046875 38.402344 43.414062 C 37.992188 44.417969 37.554688 45.410156 37.148438 46.414062 C 36.746094 47.398438 36.371094 48.394531 35.972656 49.382812 C 35.558594 50.421875 35.128906 51.453125 34.710938 52.488281 C 34.304688 53.492188 33.910156 54.5 33.503906 55.5 C 33.09375 56.503906 32.664062 57.5 32.261719 58.503906 C 31.617188 60.117188 31.203125 61.789062 31.496094 63.515625 C 31.730469 64.921875 32.5625 65.964844 33.902344 66.570312 C 35.335938 67.21875 36.871094 67.390625 38.402344 67.609375 C 39.03125 67.699219 39.648438 67.882812 40.171875 68.285156 C 40.425781 68.480469 40.53125 68.742188 40.449219 69.042969 C 40.359375 69.363281 40.074219 69.320312 39.824219 69.316406 C 32.597656 69.160156 25.375 69.269531 18.148438 69.253906 C 13.714844 69.242188 9.28125 69.253906 4.84375 69.257812 C 4.15625 69.257812 3.464844 69.367188 2.777344 69.214844 L 2.777344 68.675781 C 3.035156 68.289062 3.480469 68.175781 3.859375 68.039062 C 5.390625 67.480469 6.941406 66.992188 8.375 66.195312 C 9.394531 65.625 10.324219 64.964844 11.121094 64.101562 C 12.25 62.886719 12.832031 61.355469 13.550781 59.910156 C 14.195312 58.617188 14.796875 57.292969 15.394531 55.972656 C 15.832031 55.011719 16.25 54.035156 16.71875 53.085938 C 17.273438 51.957031 17.792969 50.8125 18.324219 49.675781 C 18.832031 48.578125 19.339844 47.484375 19.835938 46.386719 C 20.351562 45.234375 20.839844 44.074219 21.363281 42.929688 C 22.007812 41.527344 22.691406 40.144531 23.328125 38.742188 C 23.976562 37.308594 24.585938 35.855469 25.230469 34.417969 C 25.757812 33.238281 26.324219 32.078125 26.859375 30.902344 C 27.398438 29.710938 27.921875 28.511719 28.460938 27.320312 C 28.96875 26.191406 29.5 25.074219 30.007812 23.945312 C 30.515625 22.8125 30.996094 21.667969 31.503906 20.535156 C 32.0625 19.292969 32.644531 18.066406 33.207031 16.828125 C 33.710938 15.714844 34.199219 14.59375 34.703125 13.480469 C 35.25 12.269531 35.8125 11.066406 36.363281 9.855469 C 36.882812 8.707031 37.398438 7.558594 37.90625 6.410156 C 38.445312 5.191406 38.996094 3.980469 39.496094 2.753906 C 39.835938 1.925781 40.285156 1.238281 41.203125 0.988281 Z M 41.632812 0.988281 "/>
<path fill-rule="evenodd" fill="rgb(89.019775%, 0%, 5.882263%)" fill-opacity="1" d="M 78.019531 39.179688 C 77.925781 40.242188 77.828125 41.304688 77.746094 42.367188 C 77.605469 44.222656 77.222656 46.035156 76.75 47.832031 C 76.191406 49.941406 75.425781 51.972656 74.496094 53.941406 C 73.847656 55.3125 73.160156 56.664062 72.371094 57.960938 C 72.265625 58.128906 72.152344 58.246094 71.953125 58.242188 C 71.742188 58.238281 71.65625 58.082031 71.582031 57.910156 C 71.027344 56.652344 70.46875 55.398438 69.914062 54.144531 C 69.765625 53.800781 69.746094 53.457031 69.902344 53.105469 C 70.820312 51.003906 71.429688 48.800781 71.816406 46.550781 C 72.40625 43.140625 72.542969 39.710938 71.984375 36.265625 C 71.441406 32.929688 70.398438 29.773438 68.867188 26.757812 C 67.320312 23.703125 65.332031 20.976562 62.898438 18.582031 C 60.433594 16.15625 57.648438 14.183594 54.511719 12.710938 C 53.378906 12.179688 52.246094 11.660156 51.039062 11.320312 C 50.367188 11.132812 50.121094 10.582031 49.871094 10.027344 C 48.84375 7.773438 47.820312 5.519531 46.792969 3.265625 C 46.640625 2.925781 46.519531 2.574219 46.34375 2.238281 C 46.140625 1.851562 46.335938 1.613281 46.777344 1.683594 C 49.039062 2.042969 51.242188 2.609375 53.398438 3.382812 C 55.523438 4.144531 57.546875 5.101562 59.5 6.226562 C 62.480469 7.9375 65.117188 10.070312 67.527344 12.523438 C 70.179688 15.222656 72.335938 18.273438 74.054688 21.625 C 75.003906 23.472656 75.789062 25.40625 76.375 27.417969 C 77.121094 29.960938 77.597656 32.539062 77.835938 35.175781 C 77.902344 35.9375 77.785156 36.714844 78.019531 37.460938 C 78.019531 38.035156 78.019531 38.605469 78.019531 39.179688 "/>
<path fill-rule="evenodd" fill="rgb(89.019775%, 0%, 5.882263%)" fill-opacity="1" d="M 38.199219 75.433594 C 37.824219 75.277344 37.421875 75.292969 37.035156 75.277344 C 35.332031 75.199219 33.671875 74.820312 32.019531 74.464844 C 30.191406 74.070312 28.4375 73.410156 26.679688 72.777344 C 26.554688 72.730469 26.453125 72.660156 26.457031 72.511719 C 26.460938 72.355469 26.570312 72.292969 26.703125 72.273438 C 26.929688 72.242188 27.160156 72.199219 27.390625 72.199219 C 31.933594 72.222656 36.476562 72.269531 41.019531 72.273438 C 43.089844 72.273438 45.144531 72.039062 47.183594 71.636719 C 49.292969 71.214844 51.335938 70.585938 53.300781 69.738281 C 56.316406 68.441406 59.074219 66.703125 61.535156 64.515625 C 62.027344 64.078125 62.238281 64.101562 62.511719 64.699219 C 62.882812 65.507812 63.226562 66.332031 63.582031 67.148438 C 63.722656 67.46875 63.660156 67.707031 63.359375 67.929688 C 61.414062 69.394531 59.339844 70.644531 57.160156 71.726562 C 55.527344 72.539062 53.835938 73.207031 52.105469 73.761719 C 50.269531 74.347656 48.386719 74.742188 46.484375 75.066406 C 45.476562 75.242188 44.449219 75.1875 43.457031 75.433594 C 41.703125 75.433594 39.949219 75.433594 38.199219 75.433594 "/>
<path fill-rule="evenodd" fill="rgb(89.019775%, 0%, 5.882263%)" fill-opacity="1" d="M 3.703125 37.875 C 3.550781 35.535156 3.910156 32.828125 4.515625 30.15625 C 5.054688 27.773438 5.84375 25.46875 6.839844 23.230469 C 8.089844 20.425781 9.636719 17.808594 11.53125 15.40625 C 14.003906 12.273438 16.886719 9.570312 20.230469 7.367188 C 22.457031 5.894531 24.792969 4.632812 27.277344 3.675781 C 29.628906 2.769531 32.035156 2.035156 34.542969 1.6875 C 35.039062 1.617188 35.527344 1.496094 36.019531 1.425781 C 36.613281 1.339844 36.796875 1.585938 36.550781 2.132812 C 35.828125 3.742188 35.09375 5.347656 34.363281 6.953125 C 33.851562 8.070312 33.3125 9.175781 32.828125 10.308594 C 32.664062 10.6875 32.390625 10.871094 32.042969 10.964844 C 30.421875 11.410156 28.867188 12.023438 27.355469 12.757812 C 24.875 13.964844 22.585938 15.476562 20.484375 17.265625 C 18.375 19.058594 16.554688 21.117188 15 23.398438 C 13.636719 25.40625 12.507812 27.546875 11.667969 29.835938 C 11.175781 31.175781 10.722656 32.53125 10.414062 33.917969 C 10.054688 35.535156 9.832031 37.175781 9.675781 38.828125 C 9.453125 41.121094 9.617188 43.394531 9.925781 45.660156 C 10.109375 47.019531 10.453125 48.355469 10.835938 49.675781 C 11.300781 51.269531 11.917969 52.804688 12.617188 54.308594 C 12.707031 54.496094 12.710938 54.683594 12.617188 54.875 C 11.949219 56.253906 11.292969 57.636719 10.617188 59.011719 C 10.445312 59.359375 10.121094 59.316406 9.84375 58.890625 C 9.445312 58.277344 9.058594 57.65625 8.683594 57.027344 C 7.25 54.628906 6.128906 52.085938 5.324219 49.417969 C 4.746094 47.503906 4.332031 45.550781 4.007812 43.574219 C 3.722656 41.816406 3.699219 40.054688 3.703125 37.875 "/>
<path fill-rule="evenodd" fill="rgb(89.019775%, 0%, 5.882263%)" fill-opacity="1" d="M 47.351562 69.113281 C 47.34375 69.054688 47.359375 69.011719 47.371094 68.964844 C 47.402344 68.789062 47.410156 68.601562 47.429688 68.421875 C 47.46875 68.089844 47.460938 67.753906 47.460938 67.421875 C 47.460938 67.296875 47.453125 67.171875 47.4375 67.050781 C 47.429688 66.988281 47.425781 66.925781 47.425781 66.863281 C 47.421875 66.65625 47.375 66.476562 47.355469 66.28125 C 47.332031 66.070312 47.277344 65.898438 47.25 65.695312 C 47.246094 65.65625 47.242188 65.621094 47.230469 65.589844 C 47.179688 65.433594 47.152344 65.25 47.101562 65.085938 C 47.046875 64.90625 46.996094 64.71875 46.945312 64.535156 C 46.882812 64.316406 46.808594 64.121094 46.742188 63.917969 C 46.707031 63.8125 46.667969 63.703125 46.628906 63.601562 C 46.585938 63.492188 46.542969 63.378906 46.503906 63.273438 C 46.441406 63.121094 46.382812 62.964844 46.320312 62.816406 C 46.226562 62.59375 46.132812 62.371094 46.039062 62.148438 C 45.984375 62.027344 45.929688 61.910156 45.875 61.789062 C 45.75 61.519531 45.628906 61.246094 45.503906 60.976562 C 45.40625 60.761719 45.300781 60.554688 45.203125 60.332031 C 45.136719 60.175781 45.0625 60.027344 44.996094 59.871094 C 44.953125 59.785156 44.914062 59.695312 44.875 59.609375 C 44.832031 59.523438 44.789062 59.425781 44.75 59.335938 C 44.710938 59.253906 44.675781 59.160156 44.632812 59.082031 C 44.585938 59 44.546875 58.898438 44.503906 58.804688 C 44.460938 58.707031 44.417969 58.605469 44.375 58.507812 C 44.335938 58.425781 44.292969 58.347656 44.265625 58.253906 C 44.234375 58.152344 44.191406 58.078125 44.15625 57.992188 C 44.121094 57.898438 44.078125 57.804688 44.039062 57.71875 C 43.9375 57.488281 43.84375 57.246094 43.75 57 C 43.699219 56.871094 43.648438 56.746094 43.601562 56.621094 C 43.566406 56.523438 43.523438 56.441406 43.496094 56.324219 C 43.476562 56.234375 43.441406 56.15625 43.410156 56.085938 C 43.328125 55.890625 43.265625 55.664062 43.191406 55.460938 C 43.125 55.28125 43.070312 55.089844 43.011719 54.898438 C 42.957031 54.710938 42.898438 54.523438 42.847656 54.328125 C 42.792969 54.117188 42.734375 53.910156 42.679688 53.695312 C 42.625 53.46875 42.5625 53.242188 42.515625 53 C 42.484375 52.824219 42.429688 52.667969 42.414062 52.472656 C 42.40625 52.394531 42.382812 52.324219 42.367188 52.246094 C 42.328125 52.054688 42.289062 51.859375 42.265625 51.660156 C 42.234375 51.382812 42.167969 51.128906 42.15625 50.832031 C 42.152344 50.730469 42.132812 50.625 42.117188 50.523438 C 42.082031 50.34375 42.089844 50.144531 42.070312 49.960938 C 41.988281 49.253906 41.988281 48.535156 41.988281 47.816406 C 41.988281 47.390625 41.988281 46.960938 42.011719 46.539062 C 42.03125 46.246094 42.066406 45.957031 42.078125 45.664062 C 42.089844 45.371094 42.144531 45.105469 42.164062 44.820312 C 42.175781 44.625 42.203125 44.441406 42.238281 44.265625 C 42.238281 44.246094 42.242188 44.222656 42.242188 44.203125 C 42.25 44.019531 42.289062 43.851562 42.316406 43.679688 C 42.339844 43.550781 42.34375 43.410156 42.375 43.285156 C 42.421875 43.097656 42.429688 42.871094 42.480469 42.683594 C 42.507812 42.585938 42.511719 42.46875 42.539062 42.367188 C 42.585938 42.199219 42.601562 41.992188 42.652344 41.828125 C 42.675781 41.753906 42.675781 41.652344 42.699219 41.578125 C 42.75 41.421875 42.777344 41.234375 42.816406 41.066406 C 42.855469 40.914062 42.898438 40.761719 42.925781 40.597656 C 42.9375 40.515625 42.972656 40.4375 42.988281 40.359375 C 43.015625 40.226562 43.050781 40.109375 43.082031 39.984375 C 43.132812 39.789062 43.1875 39.601562 43.238281 39.410156 C 43.265625 39.308594 43.296875 39.210938 43.324219 39.105469 C 43.371094 38.921875 43.425781 38.75 43.476562 38.570312 C 43.515625 38.4375 43.558594 38.3125 43.59375 38.171875 C 43.617188 38.070312 43.65625 37.988281 43.6875 37.890625 C 43.722656 37.769531 43.761719 37.660156 43.796875 37.542969 C 43.808594 37.511719 43.816406 37.480469 43.835938 37.5 C 43.851562 37.515625 43.84375 37.550781 43.84375 37.582031 C 43.839844 37.699219 43.804688 37.785156 43.785156 37.886719 C 43.78125 37.933594 43.769531 37.976562 43.765625 38.027344 C 43.753906 38.242188 43.722656 38.449219 43.707031 38.667969 C 43.683594 39.019531 43.6875 39.367188 43.707031 39.71875 C 43.722656 39.929688 43.75 40.132812 43.761719 40.34375 C 43.773438 40.492188 43.800781 40.636719 43.828125 40.773438 C 43.828125 40.777344 43.832031 40.78125 43.832031 40.785156 C 43.847656 41.007812 43.902344 41.195312 43.933594 41.40625 C 43.945312 41.484375 43.96875 41.539062 43.984375 41.613281 C 44.003906 41.742188 44.039062 41.855469 44.066406 41.976562 C 44.125 42.25 44.203125 42.496094 44.273438 42.75 C 44.3125 42.890625 44.363281 43.023438 44.402344 43.164062 C 44.441406 43.292969 44.484375 43.410156 44.523438 43.527344 C 44.582031 43.699219 44.644531 43.867188 44.703125 44.039062 C 44.753906 44.179688 44.808594 44.316406 44.859375 44.453125 C 44.894531 44.546875 44.929688 44.644531 44.96875 44.730469 C 45.011719 44.816406 45.042969 44.917969 45.082031 45.011719 C 45.164062 45.207031 45.242188 45.414062 45.324219 45.613281 C 45.429688 45.867188 45.539062 46.121094 45.648438 46.371094 C 45.765625 46.640625 45.886719 46.90625 46.003906 47.171875 C 46.140625 47.476562 46.269531 47.78125 46.40625 48.082031 C 46.554688 48.417969 46.707031 48.746094 46.859375 49.082031 C 47 49.402344 47.144531 49.71875 47.28125 50.050781 C 47.382812 50.292969 47.488281 50.523438 47.589844 50.765625 C 47.671875 50.960938 47.753906 51.15625 47.835938 51.355469 C 47.890625 51.480469 47.941406 51.617188 47.992188 51.75 C 48.101562 52.023438 48.203125 52.3125 48.308594 52.589844 C 48.34375 52.683594 48.382812 52.777344 48.410156 52.867188 C 48.445312 52.976562 48.484375 53.070312 48.519531 53.175781 C 48.5625 53.3125 48.609375 53.449219 48.65625 53.585938 C 48.695312 53.699219 48.730469 53.816406 48.769531 53.925781 C 48.8125 54.058594 48.847656 54.210938 48.894531 54.34375 C 48.941406 54.472656 48.980469 54.621094 49.019531 54.761719 C 49.054688 54.894531 49.097656 55.019531 49.128906 55.15625 C 49.148438 55.238281 49.179688 55.304688 49.1875 55.398438 C 49.191406 55.472656 49.222656 55.507812 49.234375 55.574219 C 49.292969 55.832031 49.359375 56.078125 49.410156 56.34375 C 49.445312 56.542969 49.5 56.730469 49.523438 56.949219 C 49.527344 57.015625 49.546875 57.078125 49.558594 57.140625 C 49.605469 57.375 49.632812 57.625 49.667969 57.867188 C 49.695312 58.035156 49.703125 58.222656 49.726562 58.394531 C 49.773438 58.703125 49.765625 59.035156 49.792969 59.351562 C 49.8125 59.554688 49.8125 59.757812 49.8125 59.957031 C 49.8125 60.148438 49.808594 60.34375 49.8125 60.535156 C 49.816406 60.820312 49.777344 61.09375 49.769531 61.375 C 49.761719 61.640625 49.726562 61.886719 49.695312 62.136719 C 49.679688 62.285156 49.671875 62.4375 49.644531 62.582031 C 49.601562 62.792969 49.585938 63.03125 49.53125 63.238281 C 49.507812 63.328125 49.503906 63.449219 49.476562 63.542969 C 49.433594 63.691406 49.417969 63.875 49.367188 64.019531 C 49.34375 64.089844 49.339844 64.183594 49.316406 64.261719 C 49.277344 64.378906 49.25 64.511719 49.21875 64.640625 C 49.179688 64.792969 49.136719 64.945312 49.089844 65.089844 C 49.046875 65.234375 49.007812 65.394531 48.953125 65.527344 C 48.917969 65.605469 48.890625 65.707031 48.859375 65.796875 C 48.8125 65.953125 48.757812 66.09375 48.707031 66.242188 C 48.667969 66.351562 48.632812 66.464844 48.585938 66.554688 C 48.539062 66.652344 48.511719 66.785156 48.457031 66.871094 C 48.425781 66.921875 48.40625 67.007812 48.378906 67.070312 C 48.34375 67.160156 48.304688 67.246094 48.269531 67.332031 C 48.226562 67.429688 48.1875 67.539062 48.136719 67.617188 C 48.132812 67.625 48.128906 67.628906 48.125 67.636719 C 48.097656 67.722656 48.054688 67.773438 48.03125 67.851562 C 47.996094 67.960938 47.945312 68.03125 47.90625 68.121094 C 47.847656 68.25 47.785156 68.375 47.722656 68.492188 C 47.640625 68.644531 47.5625 68.808594 47.476562 68.949219 C 47.453125 68.992188 47.429688 69.054688 47.40625 69.113281 C 47.390625 69.113281 47.371094 69.113281 47.351562 69.113281 "/>
<path fill-rule="evenodd" fill="rgb(89.019775%, 0%, 5.882263%)" fill-opacity="1" d="M 53.023438 49.796875 C 53.011719 49.90625 53.019531 50.019531 53.019531 50.132812 C 53.019531 50.53125 52.988281 50.921875 52.953125 51.3125 C 52.945312 51.386719 52.941406 51.457031 52.9375 51.53125 C 52.933594 51.835938 52.875 52.117188 52.855469 52.417969 C 52.84375 52.601562 52.816406 52.777344 52.789062 52.949219 C 52.765625 53.09375 52.761719 53.253906 52.730469 53.398438 C 52.6875 53.613281 52.671875 53.855469 52.621094 54.066406 C 52.59375 54.179688 52.59375 54.316406 52.5625 54.429688 C 52.519531 54.601562 52.503906 54.804688 52.453125 54.976562 C 52.429688 55.0625 52.421875 55.167969 52.402344 55.261719 C 52.34375 55.515625 52.292969 55.777344 52.230469 56.023438 C 52.191406 56.175781 52.167969 56.351562 52.117188 56.496094 C 52.09375 56.554688 52.082031 56.652344 52.0625 56.730469 C 52.039062 56.828125 52.015625 56.925781 51.988281 57.019531 C 51.941406 57.195312 51.898438 57.375 51.847656 57.542969 C 51.800781 57.695312 51.761719 57.859375 51.714844 58.011719 C 51.671875 58.148438 51.625 58.28125 51.59375 58.4375 C 51.574219 58.53125 51.535156 58.59375 51.511719 58.691406 C 51.484375 58.8125 51.441406 58.921875 51.402344 59.039062 C 51.359375 59.183594 51.3125 59.328125 51.265625 59.472656 C 51.257812 59.5 51.25 59.527344 51.234375 59.511719 C 51.21875 59.5 51.214844 59.472656 51.21875 59.441406 C 51.21875 59.414062 51.21875 59.382812 51.226562 59.359375 C 51.277344 59.148438 51.292969 58.90625 51.324219 58.683594 C 51.351562 58.519531 51.339844 58.34375 51.347656 58.171875 C 51.359375 57.804688 51.347656 57.4375 51.332031 57.074219 C 51.328125 56.957031 51.308594 56.847656 51.292969 56.742188 C 51.261719 56.503906 51.238281 56.261719 51.195312 56.03125 C 51.160156 55.835938 51.109375 55.652344 51.089844 55.441406 C 51.082031 55.378906 51.058594 55.34375 51.046875 55.292969 C 50.988281 55.023438 50.921875 54.769531 50.851562 54.515625 C 50.808594 54.363281 50.765625 54.210938 50.722656 54.058594 C 50.648438 53.808594 50.574219 53.566406 50.492188 53.335938 C 50.429688 53.15625 50.363281 52.972656 50.296875 52.792969 C 50.222656 52.59375 50.152344 52.382812 50.074219 52.191406 C 50.03125 52.089844 49.992188 51.984375 49.953125 51.882812 C 49.917969 51.785156 49.871094 51.710938 49.839844 51.59375 C 49.816406 51.503906 49.777344 51.425781 49.746094 51.359375 C 49.695312 51.265625 49.660156 51.148438 49.613281 51.046875 C 49.539062 50.894531 49.480469 50.71875 49.410156 50.5625 C 49.246094 50.1875 49.082031 49.8125 48.917969 49.4375 C 48.714844 48.984375 48.511719 48.53125 48.3125 48.074219 C 48.121094 47.648438 47.9375 47.21875 47.746094 46.789062 C 47.621094 46.496094 47.496094 46.199219 47.371094 45.898438 C 47.296875 45.71875 47.226562 45.535156 47.148438 45.367188 C 47.105469 45.273438 47.0625 45.164062 47.027344 45.0625 C 46.992188 44.972656 46.949219 44.886719 46.914062 44.78125 C 46.886719 44.691406 46.847656 44.601562 46.808594 44.515625 C 46.757812 44.402344 46.71875 44.265625 46.667969 44.144531 C 46.617188 44.019531 46.574219 43.886719 46.523438 43.757812 C 46.492188 43.675781 46.460938 43.585938 46.429688 43.496094 C 46.382812 43.347656 46.332031 43.199219 46.28125 43.050781 C 46.246094 42.929688 46.203125 42.816406 46.164062 42.699219 C 46.125 42.5625 46.082031 42.421875 46.039062 42.289062 C 46 42.179688 45.964844 42.066406 45.929688 41.949219 C 45.90625 41.855469 45.875 41.773438 45.855469 41.679688 C 45.824219 41.550781 45.785156 41.445312 45.753906 41.320312 C 45.710938 41.132812 45.664062 40.941406 45.613281 40.761719 C 45.589844 40.667969 45.582031 40.5625 45.550781 40.472656 C 45.5 40.3125 45.464844 40.121094 45.433594 39.9375 C 45.398438 39.738281 45.34375 39.550781 45.332031 39.328125 C 45.328125 39.242188 45.304688 39.171875 45.289062 39.101562 C 45.253906 38.9375 45.25 38.765625 45.222656 38.601562 C 45.195312 38.4375 45.175781 38.265625 45.164062 38.085938 C 45.152344 37.832031 45.125 37.582031 45.109375 37.324219 C 45.097656 37.160156 45.089844 37 45.089844 36.835938 C 45.082031 36.347656 45.082031 35.859375 45.128906 35.382812 C 45.164062 35.058594 45.171875 34.722656 45.238281 34.414062 C 45.261719 34.296875 45.261719 34.160156 45.292969 34.039062 C 45.332031 33.878906 45.351562 33.6875 45.386719 33.515625 C 45.425781 33.328125 45.472656 33.144531 45.507812 32.957031 C 45.535156 32.832031 45.574219 32.726562 45.601562 32.609375 C 45.664062 32.375 45.726562 32.144531 45.800781 31.933594 C 45.832031 31.832031 45.863281 31.726562 45.902344 31.632812 C 45.9375 31.554688 45.964844 31.445312 46 31.359375 C 46.082031 31.148438 46.15625 30.921875 46.242188 30.722656 C 46.28125 30.628906 46.320312 30.527344 46.363281 30.4375 C 46.433594 30.277344 46.507812 30.117188 46.578125 29.953125 C 46.691406 29.699219 46.816406 29.484375 46.933594 29.242188 C 46.972656 29.15625 47.011719 29.054688 47.070312 29 C 47.105469 28.964844 47.132812 28.875 47.164062 28.816406 C 47.242188 28.683594 47.320312 28.558594 47.394531 28.425781 C 47.472656 28.285156 47.550781 28.160156 47.628906 28.035156 C 47.644531 28.015625 47.65625 27.984375 47.671875 28.015625 C 47.683594 28.039062 47.679688 28.078125 47.675781 28.113281 C 47.664062 28.179688 47.652344 28.25 47.640625 28.316406 C 47.605469 28.503906 47.601562 28.699219 47.589844 28.898438 C 47.570312 29.144531 47.5625 29.390625 47.566406 29.636719 C 47.570312 29.902344 47.59375 30.164062 47.609375 30.425781 C 47.617188 30.546875 47.644531 30.660156 47.664062 30.777344 C 47.667969 30.808594 47.675781 30.835938 47.675781 30.867188 C 47.683594 31.03125 47.730469 31.164062 47.75 31.316406 C 47.769531 31.503906 47.832031 31.640625 47.847656 31.828125 C 47.855469 31.886719 47.878906 31.921875 47.890625 31.972656 C 47.949219 32.203125 48.007812 32.433594 48.078125 32.648438 C 48.113281 32.757812 48.144531 32.875 48.179688 32.984375 C 48.222656 33.128906 48.269531 33.261719 48.316406 33.394531 C 48.351562 33.492188 48.386719 33.589844 48.421875 33.683594 C 48.472656 33.824219 48.527344 33.964844 48.578125 34.109375 C 48.640625 34.289062 48.714844 34.449219 48.78125 34.621094 C 48.820312 34.714844 48.859375 34.816406 48.898438 34.902344 C 48.941406 34.996094 48.984375 35.09375 49.023438 35.199219 C 49.058594 35.289062 49.089844 35.394531 49.136719 35.460938 C 49.148438 35.472656 49.160156 35.488281 49.164062 35.507812 C 49.1875 35.632812 49.238281 35.699219 49.277344 35.78125 C 49.316406 35.867188 49.34375 35.988281 49.398438 36.042969 C 49.402344 36.046875 49.40625 36.050781 49.40625 36.054688 C 49.429688 36.1875 49.488281 36.242188 49.527344 36.34375 C 49.558594 36.433594 49.59375 36.535156 49.644531 36.59375 C 49.648438 36.601562 49.660156 36.609375 49.660156 36.621094 C 49.6875 36.75 49.75 36.792969 49.777344 36.914062 C 49.792969 36.988281 49.832031 37.042969 49.863281 37.089844 C 49.910156 37.167969 49.933594 37.300781 49.988281 37.355469 C 49.988281 37.355469 49.992188 37.359375 49.992188 37.359375 C 50.015625 37.488281 50.074219 37.542969 50.113281 37.644531 C 50.148438 37.734375 50.183594 37.832031 50.230469 37.902344 C 50.246094 37.925781 50.257812 37.949219 50.269531 37.992188 C 50.277344 38.042969 50.292969 38.074219 50.316406 38.097656 C 50.332031 38.113281 50.34375 38.140625 50.351562 38.175781 C 50.359375 38.226562 50.375 38.261719 50.398438 38.285156 C 50.417969 38.300781 50.429688 38.335938 50.4375 38.375 C 50.445312 38.421875 50.460938 38.457031 50.480469 38.476562 C 50.488281 38.480469 50.496094 38.484375 50.496094 38.496094 C 50.515625 38.628906 50.585938 38.660156 50.609375 38.789062 C 50.617188 38.839844 50.648438 38.835938 50.65625 38.878906 C 50.683594 39.003906 50.742188 39.074219 50.777344 39.179688 C 50.808594 39.265625 50.84375 39.34375 50.878906 39.425781 C 50.925781 39.535156 50.976562 39.636719 51.019531 39.761719 C 51.046875 39.835938 51.074219 39.910156 51.105469 39.980469 C 51.1875 40.171875 51.261719 40.382812 51.339844 40.582031 C 51.375 40.675781 51.417969 40.769531 51.449219 40.882812 C 51.472656 40.972656 51.511719 41.058594 51.542969 41.144531 C 51.59375 41.277344 51.640625 41.421875 51.6875 41.5625 C 51.695312 41.585938 51.703125 41.613281 51.714844 41.636719 C 51.769531 41.75 51.800781 41.910156 51.847656 42.039062 C 51.894531 42.167969 51.933594 42.308594 51.976562 42.441406 C 52.007812 42.542969 52.03125 42.664062 52.066406 42.761719 C 52.09375 42.839844 52.105469 42.9375 52.140625 43.007812 C 52.179688 43.097656 52.191406 43.226562 52.226562 43.328125 C 52.269531 43.472656 52.316406 43.621094 52.34375 43.785156 C 52.371094 43.945312 52.417969 44.089844 52.449219 44.242188 C 52.484375 44.40625 52.515625 44.582031 52.558594 44.742188 C 52.578125 44.816406 52.597656 44.902344 52.605469 45 C 52.609375 45.09375 52.640625 45.167969 52.65625 45.253906 C 52.691406 45.457031 52.730469 45.660156 52.757812 45.867188 C 52.785156 46.070312 52.824219 46.261719 52.84375 46.46875 C 52.859375 46.613281 52.867188 46.761719 52.890625 46.902344 C 52.9375 47.210938 52.949219 47.539062 52.972656 47.855469 C 53 48.203125 53.03125 48.554688 53.019531 48.917969 C 53.015625 48.972656 53.015625 49.027344 53.023438 49.082031 C 53.023438 49.320312 53.023438 49.558594 53.023438 49.796875 "/>
</g>
</svg>
